<svg xmlns="http://www.w3.org/2000/svg" viewBox="0 0 1280 420" width="1280" height="420" role="img" aria-labelledby="t d">
  <title id="t">Bilal Sanayu Majid, Creative Developer</title>
  <desc id="d">A night-sky banner: the words CREATIVE DEVELOPER set one letter to a cell, with a small clock where the letter O is, and a glowing orb orbiting at the right.</desc>
  <defs>
    <linearGradient id="bg" x1="0" y1="0" x2="0" y2="1">
      <stop offset="0" stop-color="#efe9d9"/>
      <stop offset="1" stop-color="#e2dac4"/>
    </linearGradient>
    <radialGradient id="gA" cx="86%" cy="18%" r="55%">
      <stop offset="0" stop-color="#7a4fd0" stop-opacity="0.22"/>
      <stop offset="1" stop-color="#7a4fd0" stop-opacity="0"/>
    </radialGradient>
    <radialGradient id="gB" cx="8%" cy="108%" r="50%">
      <stop offset="0" stop-color="#0c7d8c" stop-opacity="0.18"/>
      <stop offset="1" stop-color="#0c7d8c" stop-opacity="0"/>
    </radialGradient>
    <linearGradient id="rule" x1="0" y1="0" x2="1" y2="0">
      <stop offset="0" stop-color="#a8650a" stop-opacity="0"/>
      <stop offset="0.5" stop-color="#a8650a"/>
      <stop offset="1" stop-color="#a8650a" stop-opacity="0"/>
    </linearGradient>
    <style>
      .s1 { animation: tw 4.2s ease-in-out infinite; }
      .s2 { animation: tw 5.6s ease-in-out -1.7s infinite; }
      .s3 { animation: tw 7.1s ease-in-out -3.1s infinite; }
      @keyframes tw { 50% { opacity: 0.12; } }
      .breath { transform-box: fill-box; transform-origin: center; animation: br 6s ease-in-out infinite; }
      @keyframes br { 50% { transform: scale(1.045); } }
      @media (prefers-reduced-motion: reduce) { .s1, .s2, .s3, .breath { animation: none; } }
    </style>
  </defs>

  <rect width="1280" height="420" fill="url(#bg)"/>
  <rect width="1280" height="420" fill="url(#gA)"/>
  <rect width="1280" height="420" fill="url(#gB)"/>
  <circle class="s1" cx="313.3" cy="230.0" r="1.23" fill="#1b1d33" opacity="0.14"/><circle class="s2" cx="851.0" cy="368.9" r="0.70" fill="#1b1d33" opacity="0.19"/><circle class="s3" cx="37.6" cy="78.7" r="1.11" fill="#1b1d33" opacity="0.34"/><circle class="s1" cx="716.7" cy="206.4" r="0.88" fill="#1b1d33" opacity="0.17"/><circle class="s2" cx="893.1" cy="138.7" r="1.69" fill="#1b1d33" opacity="0.46"/><circle class="s3" cx="270.5" cy="57.8" r="1.21" fill="#1b1d33" opacity="0.30"/><circle class="s1" cx="465.6" cy="370.9" r="1.50" fill="#1b1d33" opacity="0.39"/><circle class="s2" cx="598.3" cy="108.1" r="1.17" fill="#1b1d33" opacity="0.42"/><circle class="s3" cx="518.9" cy="382.2" r="0.86" fill="#1b1d33" opacity="0.20"/><circle class="s1" cx="1210.6" cy="214.8" r="1.14" fill="#1b1d33" opacity="0.40"/><circle class="s2" cx="1188.4" cy="272.8" r="0.90" fill="#1b1d33" opacity="0.52"/><circle class="s3" cx="835.1" cy="348.6" r="0.68" fill="#1b1d33" opacity="0.31"/><circle class="s1" cx="52.5" cy="39.7" r="1.61" fill="#1b1d33" opacity="0.14"/><circle class="s2" cx="529.4" cy="9.7" r="0.99" fill="#1b1d33" opacity="0.52"/><circle class="s3" cx="1205.9" cy="56.6" r="1.74" fill="#1b1d33" opacity="0.52"/><circle class="s1" cx="153.4" cy="401.1" r="1.40" fill="#1b1d33" opacity="0.18"/><circle class="s2" cx="1051.8" cy="110.2" r="1.52" fill="#1b1d33" opacity="0.51"/><circle class="s3" cx="1001.7" cy="118.2" r="1.40" fill="#1b1d33" opacity="0.34"/><circle class="s1" cx="734.3" cy="352.4" r="0.75" fill="#1b1d33" opacity="0.19"/><circle class="s2" cx="516.1" cy="313.6" r="1.79" fill="#1b1d33" opacity="0.41"/><circle class="s3" cx="411.2" cy="389.0" r="1.08" fill="#1b1d33" opacity="0.53"/><circle class="s1" cx="838.4" cy="19.3" r="1.03" fill="#1b1d33" opacity="0.47"/><circle class="s2" cx="966.1" cy="284.7" r="0.99" fill="#1b1d33" opacity="0.24"/><circle class="s3" cx="482.2" cy="104.6" r="1.09" fill="#1b1d33" opacity="0.30"/><circle class="s1" cx="361.2" cy="123.9" r="1.49" fill="#1b1d33" opacity="0.51"/><circle class="s2" cx="1126.5" cy="330.5" r="0.78" fill="#1b1d33" opacity="0.44"/><circle class="s3" cx="1269.9" cy="228.6" r="0.59" fill="#1b1d33" opacity="0.21"/><circle class="s1" cx="87.0" cy="0.1" r="1.04" fill="#1b1d33" opacity="0.50"/><circle class="s2" cx="548.8" cy="351.3" r="1.17" fill="#1b1d33" opacity="0.27"/><circle class="s3" cx="469.5" cy="105.1" r="1.67" fill="#1b1d33" opacity="0.31"/><circle class="s1" cx="230.7" cy="365.8" r="0.98" fill="#1b1d33" opacity="0.17"/><circle class="s2" cx="601.9" cy="249.2" r="1.03" fill="#1b1d33" opacity="0.22"/><circle class="s3" cx="356.9" cy="352.5" r="1.38" fill="#1b1d33" opacity="0.33"/><circle class="s1" cx="1146.9" cy="7.3" r="1.30" fill="#1b1d33" opacity="0.33"/><circle class="s2" cx="529.7" cy="81.4" r="0.76" fill="#1b1d33" opacity="0.31"/><circle class="s3" cx="454.6" cy="100.9" r="1.19" fill="#1b1d33" opacity="0.46"/><circle class="s1" cx="1224.9" cy="410.2" r="1.43" fill="#1b1d33" opacity="0.37"/><circle class="s2" cx="1194.7" cy="29.7" r="0.76" fill="#1b1d33" opacity="0.15"/><circle class="s3" cx="1024.3" cy="299.5" r="1.31" fill="#1b1d33" opacity="0.18"/><circle class="s1" cx="109.3" cy="139.8" r="1.43" fill="#1b1d33" opacity="0.41"/><circle class="s2" cx="8.3" cy="364.2" r="1.64" fill="#1b1d33" opacity="0.43"/><circle class="s3" cx="565.1" cy="148.3" r="1.17" fill="#1b1d33" opacity="0.46"/><circle class="s1" cx="348.2" cy="360.1" r="0.73" fill="#1b1d33" opacity="0.33"/><circle class="s2" cx="546.1" cy="2.9" r="0.57" fill="#1b1d33" opacity="0.33"/><circle class="s3" cx="258.9" cy="268.2" r="1.20" fill="#1b1d33" opacity="0.54"/><circle class="s1" cx="886.2" cy="139.7" r="1.44" fill="#1b1d33" opacity="0.16"/><circle class="s2" cx="511.3" cy="354.6" r="0.68" fill="#1b1d33" opacity="0.28"/><circle class="s3" cx="461.6" cy="295.3" r="0.66" fill="#1b1d33" opacity="0.33"/><circle class="s1" cx="464.9" cy="206.0" r="1.14" fill="#1b1d33" opacity="0.34"/><circle class="s2" cx="102.9" cy="236.9" r="1.31" fill="#1b1d33" opacity="0.47"/><circle class="s3" cx="259.9" cy="102.8" r="1.68" fill="#1b1d33" opacity="0.22"/><circle class="s1" cx="1148.4" cy="307.0" r="0.85" fill="#1b1d33" opacity="0.41"/><circle class="s2" cx="210.5" cy="107.3" r="0.88" fill="#1b1d33" opacity="0.35"/><circle class="s3" cx="1196.0" cy="105.8" r="1.75" fill="#1b1d33" opacity="0.47"/><circle class="s1" cx="1236.4" cy="228.7" r="0.83" fill="#1b1d33" opacity="0.16"/><circle class="s2" cx="1135.7" cy="348.7" r="1.75" fill="#1b1d33" opacity="0.47"/><circle class="s3" cx="1216.3" cy="404.4" r="1.17" fill="#1b1d33" opacity="0.33"/><circle class="s1" cx="422.5" cy="341.0" r="1.44" fill="#1b1d33" opacity="0.40"/><circle class="s2" cx="59.5" cy="297.0" r="1.35" fill="#1b1d33" opacity="0.45"/><circle class="s3" cx="1068.6" cy="308.3" r="0.56" fill="#1b1d33" opacity="0.36"/><circle class="s1" cx="699.1" cy="168.2" r="0.65" fill="#1b1d33" opacity="0.54"/><circle class="s2" cx="1156.0" cy="182.8" r="1.13" fill="#1b1d33" opacity="0.44"/><circle class="s3" cx="884.1" cy="308.8" r="1.30" fill="#1b1d33" opacity="0.46"/><circle class="s1" cx="908.7" cy="306.9" r="0.67" fill="#1b1d33" opacity="0.29"/><circle class="s2" cx="92.0" cy="284.6" r="1.46" fill="#1b1d33" opacity="0.15"/><circle class="s3" cx="845.9" cy="272.4" r="1.39" fill="#1b1d33" opacity="0.32"/><circle class="s1" cx="1081.4" cy="98.8" r="1.77" fill="#1b1d33" opacity="0.36"/><circle class="s2" cx="973.8" cy="95.7" r="1.58" fill="#1b1d33" opacity="0.47"/><circle class="s3" cx="964.3" cy="330.8" r="1.79" fill="#1b1d33" opacity="0.51"/><circle class="s1" cx="1018.3" cy="369.4" r="1.74" fill="#1b1d33" opacity="0.21"/><circle class="s2" cx="1238.8" cy="410.7" r="0.79" fill="#1b1d33" opacity="0.26"/><circle class="s3" cx="417.7" cy="131.2" r="0.66" fill="#1b1d33" opacity="0.29"/><circle class="s1" cx="941.6" cy="71.1" r="1.54" fill="#1b1d33" opacity="0.29"/><circle class="s2" cx="635.1" cy="7.0" r="1.06" fill="#1b1d33" opacity="0.29"/><circle class="s3" cx="1080.1" cy="193.9" r="1.52" fill="#1b1d33" opacity="0.24"/><circle class="s1" cx="830.8" cy="132.3" r="1.33" fill="#1b1d33" opacity="0.42"/><circle class="s2" cx="1145.6" cy="114.0" r="1.41" fill="#1b1d33" opacity="0.39"/><circle class="s3" cx="974.9" cy="408.7" r="0.61" fill="#1b1d33" opacity="0.38"/><circle class="s1" cx="505.2" cy="199.4" r="1.00" fill="#1b1d33" opacity="0.41"/><circle class="s2" cx="879.6" cy="156.5" r="1.78" fill="#1b1d33" opacity="0.36"/><circle class="s3" cx="834.5" cy="47.4" r="0.71" fill="#1b1d33" opacity="0.31"/><circle class="s1" cx="272.2" cy="104.5" r="1.79" fill="#1b1d33" opacity="0.38"/><circle class="s2" cx="630.2" cy="276.6" r="0.91" fill="#1b1d33" opacity="0.48"/><circle class="s3" cx="1186.9" cy="415.5" r="0.59" fill="#1b1d33" opacity="0.52"/><circle class="s1" cx="1002.6" cy="355.8" r="1.65" fill="#1b1d33" opacity="0.20"/><circle class="s2" cx="1157.9" cy="207.4" r="1.40" fill="#1b1d33" opacity="0.30"/><circle class="s3" cx="987.7" cy="28.9" r="1.49" fill="#1b1d33" opacity="0.22"/><circle class="s1" cx="251.6" cy="252.1" r="0.99" fill="#1b1d33" opacity="0.19"/><circle class="s2" cx="300.4" cy="135.9" r="0.65" fill="#1b1d33" opacity="0.49"/><circle class="s3" cx="179.1" cy="29.1" r="1.11" fill="#1b1d33" opacity="0.26"/><path class="s1" d="M573.3907462619245 296.10680957324803H586.7970589585602M580.0939026102424 289.40365322493017V302.8099659215659" stroke="#1b1d33" stroke-width="1" opacity="0.28" stroke-linecap="round"/><path class="s2" d="M587.6245997124352 201.2680814601481H601.2338304868899M594.4292150996625 194.4634660729207V208.07269684737548" stroke="#1b1d33" stroke-width="1" opacity="0.28" stroke-linecap="round"/><path class="s3" d="M427.997519264929 312.722104517743H451.19774814415723M439.5976337045431 301.1219900781289V324.3222189573571" stroke="#1b1d33" stroke-width="1" opacity="0.28" stroke-linecap="round"/><path class="s1" d="M788.6016077226959 382.68680289387703H804.787321085576M796.6944644041359 374.593946212437V390.77965957531705" stroke="#1b1d33" stroke-width="1" opacity="0.28" stroke-linecap="round"/><path class="s2" d="M401.9184568542987 250.0362712237984H421.89656562916934M411.907511241734 240.04721683636308V260.0253256112337" stroke="#1b1d33" stroke-width="1" opacity="0.28" stroke-linecap="round"/>

  <g font-family="'Space Grotesk','Arial Black','Helvetica Neue',Arial,sans-serif" font-weight="900">
    <rect x="67" y="108.88" width="68" height="93.84" rx="3" fill="rgba(27,29,51,0.06)"/><text x="101" y="188" text-anchor="middle" font-size="92" fill="#1b1d33">C</text><rect x="141" y="108.88" width="68" height="93.84" rx="3" fill="rgba(27,29,51,0.06)"/><text x="175" y="188" text-anchor="middle" font-size="92" fill="#1b1d33">R</text><rect x="215" y="108.88" width="68" height="93.84" rx="3" fill="rgba(27,29,51,0.06)"/><text x="249" y="188" text-anchor="middle" font-size="92" fill="#1b1d33">E</text><rect x="289" y="108.88" width="68" height="93.84" rx="3" fill="rgba(27,29,51,0.06)"/><text x="323" y="188" text-anchor="middle" font-size="92" fill="#1b1d33">A</text><rect x="363" y="108.88" width="68" height="93.84" rx="3" fill="rgba(27,29,51,0.06)"/><text x="397" y="188" text-anchor="middle" font-size="92" fill="#1b1d33">T</text><rect x="437" y="108.88" width="68" height="93.84" rx="3" fill="rgba(27,29,51,0.06)"/><text x="471" y="188" text-anchor="middle" font-size="92" fill="#1b1d33">I</text><rect x="511" y="108.88" width="68" height="93.84" rx="3" fill="rgba(27,29,51,0.06)"/><text x="545" y="188" text-anchor="middle" font-size="92" fill="#1b1d33">V</text><rect x="585" y="108.88" width="68" height="93.84" rx="3" fill="rgba(27,29,51,0.06)"/><text x="619" y="188" text-anchor="middle" font-size="92" fill="#1b1d33">E</text>
    <rect x="67" y="220.88" width="68" height="93.84" rx="3" fill="rgba(27,29,51,0.06)"/><text x="101" y="300" text-anchor="middle" font-size="92" fill="#1b1d33">D</text><rect x="141" y="220.88" width="68" height="93.84" rx="3" fill="rgba(27,29,51,0.06)"/><text x="175" y="300" text-anchor="middle" font-size="92" fill="#1b1d33">E</text><rect x="215" y="220.88" width="68" height="93.84" rx="3" fill="rgba(27,29,51,0.06)"/><text x="249" y="300" text-anchor="middle" font-size="92" fill="#1b1d33">V</text><rect x="289" y="220.88" width="68" height="93.84" rx="3" fill="rgba(27,29,51,0.06)"/><text x="323" y="300" text-anchor="middle" font-size="92" fill="#1b1d33">E</text><rect x="363" y="220.88" width="68" height="93.84" rx="3" fill="rgba(27,29,51,0.06)"/><text x="397" y="300" text-anchor="middle" font-size="92" fill="#1b1d33">L</text><rect x="437" y="220.88" width="68" height="93.84" rx="3" fill="rgba(27,29,51,0.06)"/>
  <g>
    <circle cx="471" cy="266.88" r="38.28" fill="none" stroke="#0c5a79" stroke-opacity="0.35" stroke-width="1.2"/>
    <circle cx="471" cy="266.88" r="31.28" fill="none" stroke="#0c5a79" stroke-width="2.2"/>
    <line x1="471.0" y1="243.7" x2="471.0" y2="237.2" stroke="#0c5a79" stroke-width="2.2" stroke-linecap="round"/><line x1="484.1" y1="244.1" x2="485.9" y2="241.1" stroke="#0c5a79" stroke-width="1.2" stroke-linecap="round"/><line x1="493.8" y1="253.7" x2="496.7" y2="252.0" stroke="#0c5a79" stroke-width="1.2" stroke-linecap="round"/><line x1="494.1" y1="266.9" x2="500.7" y2="266.9" stroke="#0c5a79" stroke-width="2.2" stroke-linecap="round"/><line x1="493.8" y1="280.0" x2="496.7" y2="281.7" stroke="#0c5a79" stroke-width="1.2" stroke-linecap="round"/><line x1="484.1" y1="289.6" x2="485.9" y2="292.6" stroke="#0c5a79" stroke-width="1.2" stroke-linecap="round"/><line x1="471.0" y1="290.0" x2="471.0" y2="296.6" stroke="#0c5a79" stroke-width="2.2" stroke-linecap="round"/><line x1="457.9" y1="289.6" x2="456.1" y2="292.6" stroke="#0c5a79" stroke-width="1.2" stroke-linecap="round"/><line x1="448.2" y1="280.0" x2="445.3" y2="281.7" stroke="#0c5a79" stroke-width="1.2" stroke-linecap="round"/><line x1="447.9" y1="266.9" x2="441.3" y2="266.9" stroke="#0c5a79" stroke-width="2.2" stroke-linecap="round"/><line x1="448.2" y1="253.7" x2="445.3" y2="252.0" stroke="#0c5a79" stroke-width="1.2" stroke-linecap="round"/><line x1="457.9" y1="244.1" x2="456.1" y2="241.1" stroke="#0c5a79" stroke-width="1.2" stroke-linecap="round"/>
    <line x1="471" y1="266.88" x2="460.3648" y2="256.2448" stroke="#1b1d33" stroke-width="3.4" stroke-linecap="round"/>
    <line x1="471" y1="266.88" x2="477.256" y2="248.112" stroke="#0c5a79" stroke-width="2.6" stroke-linecap="round"/>
    <g>
      <line x1="471" y1="271.2592" x2="471" y2="241.856" stroke="#a8650a" stroke-width="1.5" stroke-linecap="round"/>
      <animateTransform attributeName="transform" type="rotate" from="0 471 266.88" to="360 471 266.88" dur="60s" repeatCount="indefinite"/>
    </g>
    <circle cx="471" cy="266.88" r="3.2" fill="#a8650a"/>
  </g><rect x="511" y="220.88" width="68" height="93.84" rx="3" fill="rgba(27,29,51,0.06)"/><text x="545" y="300" text-anchor="middle" font-size="92" fill="#1b1d33">P</text><rect x="585" y="220.88" width="68" height="93.84" rx="3" fill="rgba(27,29,51,0.06)"/><text x="619" y="300" text-anchor="middle" font-size="92" fill="#1b1d33">E</text><rect x="659" y="220.88" width="68" height="93.84" rx="3" fill="rgba(27,29,51,0.06)"/><text x="693" y="300" text-anchor="middle" font-size="92" fill="#1b1d33">R</text><rect x="733" y="220.88" width="68" height="93.84" rx="3" fill="rgba(27,29,51,0.06)"/><text x="767" y="300" text-anchor="middle" font-size="92" fill="#1b1d33">.</text>
  </g>

  <g font-family="'Roboto Mono','SFMono-Regular',Consolas,'Liberation Mono',monospace" font-size="13" letter-spacing="3.4">
    <text x="64" y="64" fill="#a8650a">BILAL SANAYU MAJID</text>
    <text x="64" y="86" fill="#4b5170">INFORMATICS ENGINEERING, PENS SURABAYA</text>
    <rect x="64" y="104" width="360" height="1.2" fill="url(#rule)"/>
    <text x="64" y="352" fill="#4b5170">WORKING INSTRUMENTS · HAND-WRITTEN WEBGL · A FRAME BUDGET</text>
    <text x="64" y="378" fill="#0c5a79" font-size="12">7.2756°S  112.7937°E</text>
  </g>

  
  <g>
    <circle cx="1090" cy="206" r="155.4" fill="url(#halo)"/>
    <ellipse cx="1090" cy="206" rx="102.11999999999999" ry="102.11999999999999" fill="none" stroke="#0c7d8c" stroke-opacity="0.45" stroke-width="1.4"/>
    <g>
      <circle cx="1090" cy="103.88000000000001" r="4.5" fill="#a8650a"/>
      <animateTransform attributeName="transform" type="rotate" from="0 1090 206" to="360 1090 206" dur="18s" repeatCount="indefinite"/>
    </g>
    <circle class="breath" cx="1090" cy="206" r="74" fill="url(#core)"/>
    <ellipse cx="1067.8" cy="177.88" rx="22.2" ry="13.32" fill="#fff" opacity="0.5" transform="rotate(-28 1067.8 177.88)"/>
    <defs>
      <radialGradient id="core" cx="34%" cy="28%" r="80%">
        <stop offset="0" stop-color="#ffffff"/>
        <stop offset="0.14" stop-color="#8fe0ee"/>
        <stop offset="0.4" stop-color="#1b9bb0"/>
        <stop offset="0.76" stop-color="#6b3fc4"/>
        <stop offset="1" stop-color="#241456"/>
      </radialGradient>
      <radialGradient id="halo">
        <stop offset="0" stop-color="#0c7d8c" stop-opacity="0.32"/>
        <stop offset="1" stop-color="#0c7d8c" stop-opacity="0"/>
      </radialGradient>
    </defs>
  </g>

  <g font-family="'Roboto Mono','SFMono-Regular',Consolas,monospace" font-size="11" letter-spacing="3" fill="#4b5170" text-anchor="end">
    <text x="1216" y="378">LALSM / OBSERVATORY</text>
  </g>
</svg>
